<svg width="219" height="228" viewBox="0 0 219 228" fill="none" xmlns="http://www.w3.org/2000/svg">
<path d="M86.16 219.04C84.88 218.187 83.6 217.12 82.32 215.84C81.2533 214.347 80.6133 212.747 80.4 211.04L53.52 125.28H34C32.9333 125.28 32.2933 124.533 32.08 123.04C31.8667 121.547 31.76 120.587 31.76 120.16C31.76 117.387 32.72 115.68 34.64 115.04C36.56 114.4 38.5867 114.08 40.72 114.08C43.0667 113.867 45.2 113.547 47.12 113.12C49.04 112.693 50 111.413 50 109.28L33.68 22.24H2.32C1.25333 22.24 0.613333 21.6 0.4 20.32C0.186667 18.8267 0.08 17.76 0.08 17.12C0.08 14.3467 1.14667 12.32 3.28 11.04C5.62667 9.54666 8.29333 8.47999 11.28 7.83998C14.2667 7.19999 17.2533 6.88 20.24 6.88C23.44 6.66665 26 6.45332 27.92 6.23999C31.12 6.02666 34 5.81333 36.56 5.59999C39.12 5.17332 41.7867 4.85332 44.56 4.63999C47.3333 4.42666 50.2133 4.31999 53.2 4.31999C56.4 4.10666 60.24 4 64.72 4C65.36 4 66.4267 4 67.92 4C69.6267 4 71.3333 4.10666 73.04 4.31999C74.96 4.31999 76.6667 4.31999 78.16 4.31999C79.8667 4.31999 81.04 4.31999 81.68 4.31999C84.0267 5.38666 85.52 6.66665 86.16 8.15998C87.0133 9.65332 87.5467 11.36 87.76 13.28C88.1867 14.9867 88.5067 16.8 88.72 18.72C88.9333 20.64 89.7867 22.4533 91.28 24.16L135.76 191.52H137.68L172.24 51.68V49.76C172.453 49.3333 172.773 47.84 173.2 45.28C173.627 42.72 174.053 39.9467 174.48 36.96C174.907 33.9733 175.333 31.2 175.76 28.64C176.187 26.08 176.4 24.5867 176.4 24.16V21.92C176.4 21.4933 176.293 20.64 176.08 19.36C175.867 17.8667 175.227 17.12 174.16 17.12H150.48C149.413 17.12 148.773 16.0533 148.56 13.92C148.347 11.5733 148.24 9.97332 148.24 9.11999C148.24 7.19999 148.773 5.81332 149.84 4.95998C150.907 3.89332 152.507 3.03999 154.64 2.4C155.92 2.18665 158.373 1.97332 162 1.75999C165.627 1.54666 169.36 1.33333 173.2 1.12C177.253 0.906652 181.093 0.693315 184.72 0.479984C188.347 0.266654 190.907 0.159988 192.4 0.159988C193.253 0.159988 195.067 0.266654 197.84 0.479984C200.613 0.479984 203.493 0.799987 206.48 1.43999C209.467 2.08 212.133 3.14666 214.48 4.63999C217.04 5.91998 218.32 7.83998 218.32 10.4C218.32 13.1733 216.827 14.9867 213.84 15.84C211.067 16.48 208.187 16.8 205.2 16.8C202.853 16.8 200.827 16.6933 199.12 16.48C197.627 16.2667 196.667 16.16 196.24 16.16L141.52 221.28C140.667 224.267 139.387 225.973 137.68 226.4C135.973 227.04 134.053 227.36 131.92 227.36C124.027 227.36 116.347 226.4 108.88 224.48C101.627 222.773 94.0533 220.96 86.16 219.04ZM98 209.44C98 209.44 99.1733 209.76 101.52 210.4C104.08 211.04 106.853 211.787 109.84 212.64C113.04 213.28 116.133 213.92 119.12 214.56C122.107 215.2 124.347 215.52 125.84 215.52V205.28L77.2 20.32H50C49.1467 20.32 47.8667 20.7467 46.16 21.6C44.4533 22.4533 43.6 23.3066 43.6 24.16L90 205.28L98 209.44Z" fill="white"/>
</svg>
