<svg width="512" height="512" viewBox="0 0 512 512" fill="none" xmlns="http://www.w3.org/2000/svg">
<path d="M0 0H512V512H0V0Z" fill="black"/>
<path d="M232.42 364.98C231.06 364.073 229.7 362.94 228.34 361.58C227.207 359.993 226.527 358.293 226.3 356.48L197.74 265.36H177C175.867 265.36 175.187 264.567 174.96 262.98C174.733 261.393 174.62 260.373 174.62 259.92C174.62 256.973 175.64 255.16 177.68 254.48C179.72 253.8 181.873 253.46 184.14 253.46C186.633 253.233 188.9 252.893 190.94 252.44C192.98 251.987 194 250.627 194 248.36L176.66 155.88H143.34C142.207 155.88 141.527 155.2 141.3 153.84C141.073 152.253 140.96 151.12 140.96 150.44C140.96 147.493 142.093 145.34 144.36 143.98C146.853 142.393 149.687 141.26 152.86 140.58C156.033 139.9 159.207 139.56 162.38 139.56C165.78 139.333 168.5 139.107 170.54 138.88C173.94 138.653 177 138.427 179.72 138.2C182.44 137.747 185.273 137.407 188.22 137.18C191.167 136.953 194.227 136.84 197.4 136.84C200.8 136.613 204.88 136.5 209.64 136.5C210.32 136.5 211.453 136.5 213.04 136.5C214.853 136.5 216.667 136.613 218.48 136.84C220.52 136.84 222.333 136.84 223.92 136.84C225.733 136.84 226.98 136.84 227.66 136.84C230.153 137.973 231.74 139.333 232.42 140.92C233.327 142.507 233.893 144.32 234.12 146.36C234.573 148.173 234.913 150.1 235.14 152.14C235.367 154.18 236.273 156.107 237.86 157.92L285.12 335.74H287.16L323.88 187.16V185.12C324.107 184.667 324.447 183.08 324.9 180.36C325.353 177.64 325.807 174.693 326.26 171.52C326.713 168.347 327.167 165.4 327.62 162.68C328.073 159.96 328.3 158.373 328.3 157.92V155.54C328.3 155.087 328.187 154.18 327.96 152.82C327.733 151.233 327.053 150.44 325.92 150.44H300.76C299.627 150.44 298.947 149.307 298.72 147.04C298.493 144.547 298.38 142.847 298.38 141.94C298.38 139.9 298.947 138.427 300.08 137.52C301.213 136.387 302.913 135.48 305.18 134.8C306.54 134.573 309.147 134.347 313 134.12C316.853 133.893 320.82 133.667 324.9 133.44C329.207 133.213 333.287 132.987 337.14 132.76C340.993 132.533 343.713 132.42 345.3 132.42C346.207 132.42 348.133 132.533 351.08 132.76C354.027 132.76 357.087 133.1 360.26 133.78C363.433 134.46 366.267 135.593 368.76 137.18C371.48 138.54 372.84 140.58 372.84 143.3C372.84 146.247 371.253 148.173 368.08 149.08C365.133 149.76 362.073 150.1 358.9 150.1C356.407 150.1 354.253 149.987 352.44 149.76C350.853 149.533 349.833 149.42 349.38 149.42L291.24 367.36C290.333 370.533 288.973 372.347 287.16 372.8C285.347 373.48 283.307 373.82 281.04 373.82C272.653 373.82 264.493 372.8 256.56 370.76C248.853 368.947 240.807 367.02 232.42 364.98ZM245 354.78C245 354.78 246.247 355.12 248.74 355.8C251.46 356.48 254.407 357.273 257.58 358.18C260.98 358.86 264.267 359.54 267.44 360.22C270.613 360.9 272.993 361.24 274.58 361.24V350.36L222.9 153.84H194C193.093 153.84 191.733 154.293 189.92 155.2C188.107 156.107 187.2 157.013 187.2 157.92L236.5 350.36L245 354.78Z" fill="white"/>
</svg>
