<svg width="219" height="228" viewBox="0 0 219 228" fill="none" xmlns="http://www.w3.org/2000/svg">
<path d="M86.1601 219.04C84.8801 218.187 83.6001 217.12 82.3201 215.84C81.2534 214.347 80.6134 212.747 80.4001 211.04L53.5201 125.28H34.0001C32.9334 125.28 32.2934 124.533 32.0801 123.04C31.8667 121.547 31.7601 120.587 31.7601 120.16C31.7601 117.387 32.7201 115.68 34.6401 115.04C36.5601 114.4 38.5867 114.08 40.7201 114.08C43.0667 113.867 45.2001 113.547 47.1201 113.12C49.0401 112.693 50.0001 111.413 50.0001 109.28L33.6801 22.24H2.32008C1.25341 22.24 0.613411 21.6 0.400078 20.32C0.186745 18.8266 0.0800781 17.76 0.0800781 17.12C0.0800781 14.3466 1.14674 12.32 3.28008 11.04C5.62674 9.54664 8.29341 8.47997 11.2801 7.83997C14.2667 7.19998 17.2534 6.87998 20.2401 6.87998C23.4401 6.66664 26.0001 6.4533 27.9201 6.23997C31.1201 6.02664 34.0001 5.81331 36.5601 5.59998C39.1201 5.17331 41.7867 4.8533 44.5601 4.63997C47.3334 4.42664 50.2134 4.31998 53.2001 4.31998C56.4001 4.10665 60.2401 3.99998 64.7201 3.99998C65.3601 3.99998 66.4267 3.99998 67.9201 3.99998C69.6267 3.99998 71.3334 4.10665 73.0401 4.31998C74.9601 4.31998 76.6667 4.31998 78.1601 4.31998C79.8667 4.31998 81.0401 4.31998 81.6801 4.31998C84.0268 5.38664 85.5201 6.66664 86.1601 8.15997C87.0134 9.65331 87.5467 11.36 87.7601 13.28C88.1867 14.9866 88.5067 16.8 88.7201 18.72C88.9334 20.64 89.7867 22.4533 91.2801 24.16L135.76 191.52H137.68L172.24 51.68V49.76C172.453 49.3333 172.773 47.84 173.2 45.28C173.627 42.72 174.053 39.9466 174.48 36.96C174.907 33.9733 175.333 31.2 175.76 28.64C176.187 26.08 176.4 24.5866 176.4 24.16V21.92C176.4 21.4933 176.293 20.64 176.08 19.36C175.867 17.8666 175.227 17.12 174.16 17.12H150.48C149.413 17.12 148.773 16.0533 148.56 13.92C148.347 11.5733 148.24 9.97331 148.24 9.11997C148.24 7.19997 148.773 5.8133 149.84 4.95997C150.907 3.8933 152.507 3.03997 154.64 2.39998C155.92 2.18664 158.373 1.9733 162 1.75997C165.627 1.54664 169.36 1.33331 173.2 1.11998C177.253 0.906637 181.093 0.6933 184.72 0.479969C188.347 0.266638 190.907 0.159973 192.4 0.159973C193.253 0.159973 195.067 0.266638 197.84 0.479969C200.613 0.479969 203.493 0.799971 206.48 1.43998C209.467 2.07998 212.133 3.14665 214.48 4.63997C217.04 5.91997 218.32 7.83997 218.32 10.4C218.32 13.1733 216.827 14.9866 213.84 15.84C211.067 16.48 208.187 16.8 205.2 16.8C202.853 16.8 200.827 16.6933 199.12 16.48C197.627 16.2666 196.667 16.16 196.24 16.16L141.52 221.28C140.667 224.267 139.387 225.973 137.68 226.4C135.973 227.04 134.053 227.36 131.92 227.36C124.027 227.36 116.347 226.4 108.88 224.48C101.627 222.773 94.0534 220.96 86.1601 219.04ZM98.0001 209.44C98.0001 209.44 99.1734 209.76 101.52 210.4C104.08 211.04 106.853 211.787 109.84 212.64C113.04 213.28 116.133 213.92 119.12 214.56C122.107 215.2 124.347 215.52 125.84 215.52V205.28L77.2001 20.32H50.0001C49.1467 20.32 47.8667 20.7466 46.1601 21.6C44.4534 22.4533 43.6001 23.3066 43.6001 24.16L90.0001 205.28L98.0001 209.44Z" fill="black"/>
</svg>
